<svg width="1981" height="715" viewBox="0 0 1981 715" fill="none" xmlns="http://www.w3.org/2000/svg">
<g clip-path="url(#clip0_2848_614)">
<mask id="path-1-outside-1_2848_614" maskUnits="userSpaceOnUse" x="848" y="162" width="298" height="51" fill="black">
<rect fill="white" x="848" y="162" width="298" height="51"/>
<path d="M854.22 211H849.6V164.1H853.73L876.62 197.42L880.68 203.65L880.4 197.56V164.1H885.02V211H880.89L857.37 176.84L853.94 171.66L854.22 176.91V211ZM951.003 211H946.383V164.1H951.003V211ZM1030.15 211.56C1016.5 211.56 1008.73 201.27 1008.73 187.48C1008.73 173.69 1016.5 163.4 1030.15 163.4C1040.93 163.4 1047.65 169.49 1050.38 178.73L1046.32 181.46C1044.57 173.34 1039.74 167.67 1030.22 167.67C1019.16 167.67 1013.56 175.93 1013.56 187.48C1013.56 199.03 1019.16 207.29 1030.22 207.29C1039.74 207.29 1044.57 201.62 1046.32 193.5L1050.38 196.23C1047.65 205.47 1040.93 211.56 1030.15 211.56ZM1112.03 211H1107.41V164.1H1112.03V182.44L1111.82 190.21L1117.84 183.77L1136.46 164.1H1142.27L1124.7 182.44L1143.88 211H1138.21L1121.41 185.73L1112.03 195.67V211Z"/>
</mask>
<path d="M854.22 211H849.6V164.1H853.73L876.62 197.42L880.68 203.65L880.4 197.56V164.1H885.02V211H880.89L857.37 176.84L853.94 171.66L854.22 176.91V211ZM951.003 211H946.383V164.1H951.003V211ZM1030.15 211.56C1016.5 211.56 1008.73 201.27 1008.73 187.48C1008.73 173.69 1016.5 163.4 1030.15 163.4C1040.93 163.4 1047.65 169.49 1050.38 178.73L1046.32 181.46C1044.57 173.34 1039.74 167.67 1030.22 167.67C1019.16 167.67 1013.56 175.93 1013.56 187.48C1013.56 199.03 1019.16 207.29 1030.22 207.29C1039.74 207.29 1044.57 201.62 1046.32 193.5L1050.38 196.23C1047.65 205.47 1040.93 211.56 1030.15 211.56ZM1112.03 211H1107.41V164.1H1112.03V182.44L1111.82 190.21L1117.84 183.77L1136.46 164.1H1142.27L1124.7 182.44L1143.88 211H1138.21L1121.41 185.73L1112.03 195.67V211Z" fill="#242023"/>
<path d="M854.22 211V212H855.22V211H854.22ZM849.6 211H848.6V212H849.6V211ZM849.6 164.1V163.1H848.6V164.1H849.6ZM853.73 164.1L854.554 163.534L854.256 163.1H853.73V164.1ZM876.62 197.42L877.458 196.874L877.451 196.864L877.444 196.854L876.62 197.42ZM880.68 203.65L879.842 204.196L881.848 207.273L881.679 203.604L880.68 203.65ZM880.4 197.56H879.4V197.583L879.401 197.606L880.4 197.56ZM880.4 164.1V163.1H879.4V164.1H880.4ZM885.02 164.1H886.02V163.1H885.02V164.1ZM885.02 211V212H886.02V211H885.02ZM880.89 211L880.066 211.567L880.364 212H880.89V211ZM857.37 176.84L856.536 177.392L856.541 177.4L856.546 177.407L857.37 176.84ZM853.94 171.66L854.774 171.108L852.746 168.045L852.941 171.713L853.94 171.66ZM854.22 176.91H855.22V176.883L855.219 176.857L854.22 176.91ZM854.22 211V210H849.6V211V212H854.22V211ZM849.6 211H850.6V164.1H849.6H848.6V211H849.6ZM849.6 164.1V165.1H853.73V164.1V163.1H849.6V164.1ZM853.73 164.1L852.906 164.666L875.796 197.986L876.62 197.42L877.444 196.854L854.554 163.534L853.73 164.1ZM876.62 197.42L875.782 197.966L879.842 204.196L880.68 203.65L881.518 203.104L877.458 196.874L876.62 197.42ZM880.68 203.65L881.679 203.604L881.399 197.514L880.4 197.56L879.401 197.606L879.681 203.696L880.68 203.65ZM880.4 197.56H881.4V164.1H880.4H879.4V197.56H880.4ZM880.4 164.1V165.1H885.02V164.1V163.1H880.4V164.1ZM885.02 164.1H884.02V211H885.02H886.02V164.1H885.02ZM885.02 211V210H880.89V211V212H885.02V211ZM880.89 211L881.714 210.433L858.194 176.273L857.37 176.84L856.546 177.407L880.066 211.567L880.89 211ZM857.37 176.84L858.204 176.288L854.774 171.108L853.94 171.66L853.106 172.212L856.536 177.392L857.37 176.84ZM853.94 171.66L852.941 171.713L853.221 176.963L854.22 176.91L855.219 176.857L854.939 171.607L853.94 171.66ZM854.22 176.91H853.22V211H854.22H855.22V176.91H854.22ZM951.003 211V212H952.003V211H951.003ZM946.383 211H945.383V212H946.383V211ZM946.383 164.1V163.1H945.383V164.1H946.383ZM951.003 164.1H952.003V163.1H951.003V164.1ZM951.003 211V210H946.383V211V212H951.003V211ZM946.383 211H947.383V164.1H946.383H945.383V211H946.383ZM946.383 164.1V165.1H951.003V164.1V163.1H946.383V164.1ZM951.003 164.1H950.003V211H951.003H952.003V164.1H951.003ZM1050.38 178.73L1050.94 179.56L1051.55 179.15L1051.34 178.447L1050.38 178.73ZM1046.32 181.46L1045.34 181.671L1045.66 183.113L1046.88 182.29L1046.32 181.46ZM1046.32 193.5L1046.88 192.67L1045.66 191.847L1045.34 193.289L1046.32 193.5ZM1050.38 196.23L1051.34 196.513L1051.55 195.81L1050.94 195.4L1050.38 196.23ZM1030.15 211.56V210.56C1023.6 210.56 1018.53 208.101 1015.09 204.044C1011.62 199.968 1009.73 194.195 1009.73 187.48H1008.73H1007.73C1007.73 194.555 1009.73 200.822 1013.56 205.339C1017.41 209.874 1023.05 212.56 1030.15 212.56V211.56ZM1008.73 187.48H1009.73C1009.73 180.765 1011.62 174.992 1015.09 170.916C1018.53 166.859 1023.6 164.4 1030.15 164.4V163.4V162.4C1023.05 162.4 1017.41 165.086 1013.56 169.621C1009.73 174.138 1007.73 180.405 1007.73 187.48H1008.73ZM1030.15 163.4V164.4C1035.35 164.4 1039.49 165.863 1042.66 168.383C1045.84 170.908 1048.1 174.549 1049.42 179.013L1050.38 178.73L1051.34 178.447C1049.93 173.671 1047.47 169.647 1043.91 166.817C1040.34 163.982 1035.74 162.4 1030.15 162.4V163.4ZM1050.38 178.73L1049.82 177.9L1045.76 180.63L1046.32 181.46L1046.88 182.29L1050.94 179.56L1050.38 178.73ZM1046.32 181.46L1047.3 181.249C1046.4 177.06 1044.68 173.402 1041.87 170.788C1039.04 168.158 1035.19 166.67 1030.22 166.67V167.67V168.67C1034.77 168.67 1038.1 170.017 1040.51 172.252C1042.93 174.503 1044.5 177.74 1045.34 181.671L1046.32 181.46ZM1030.22 167.67V166.67C1024.42 166.67 1019.95 168.852 1016.96 172.622C1014 176.361 1012.56 181.558 1012.56 187.48H1013.56H1014.56C1014.56 181.852 1015.93 177.144 1018.53 173.865C1021.1 170.618 1024.97 168.67 1030.22 168.67V167.67ZM1013.56 187.48H1012.56C1012.56 193.402 1014 198.599 1016.96 202.338C1019.95 206.108 1024.42 208.29 1030.22 208.29V207.29V206.29C1024.97 206.29 1021.1 204.342 1018.53 201.095C1015.93 197.816 1014.56 193.108 1014.56 187.48H1013.56ZM1030.22 207.29V208.29C1035.19 208.29 1039.04 206.802 1041.87 204.172C1044.68 201.558 1046.4 197.9 1047.3 193.711L1046.32 193.5L1045.34 193.289C1044.5 197.22 1042.93 200.457 1040.51 202.708C1038.1 204.943 1034.77 206.29 1030.22 206.29V207.29ZM1046.32 193.5L1045.76 194.33L1049.82 197.06L1050.38 196.23L1050.94 195.4L1046.88 192.67L1046.32 193.5ZM1050.38 196.23L1049.42 195.947C1048.1 200.411 1045.84 204.052 1042.66 206.577C1039.49 209.097 1035.35 210.56 1030.15 210.56V211.56V212.56C1035.74 212.56 1040.34 210.978 1043.91 208.143C1047.47 205.313 1049.93 201.289 1051.34 196.513L1050.38 196.23ZM1112.03 211V212H1113.03V211H1112.03ZM1107.41 211H1106.41V212H1107.41V211ZM1107.41 164.1V163.1H1106.41V164.1H1107.41ZM1112.03 164.1H1113.03V163.1H1112.03V164.1ZM1112.03 182.44L1113.03 182.467L1113.03 182.454V182.44H1112.03ZM1111.82 190.21L1110.82 190.183L1110.75 192.82L1112.55 190.893L1111.82 190.21ZM1117.84 183.77L1117.11 183.083L1117.11 183.087L1117.84 183.77ZM1136.46 164.1V163.1H1136.03L1135.73 163.413L1136.46 164.1ZM1142.27 164.1L1142.99 164.792L1144.61 163.1H1142.27V164.1ZM1124.7 182.44L1123.98 181.748L1123.42 182.329L1123.87 182.998L1124.7 182.44ZM1143.88 211V212H1145.76L1144.71 210.442L1143.88 211ZM1138.21 211L1137.38 211.554L1137.67 212H1138.21V211ZM1121.41 185.73L1122.24 185.176L1121.55 184.129L1120.68 185.044L1121.41 185.73ZM1112.03 195.67L1111.3 194.984L1111.03 195.273V195.67H1112.03ZM1112.03 211V210H1107.41V211V212H1112.03V211ZM1107.41 211H1108.41V164.1H1107.41H1106.41V211H1107.41ZM1107.41 164.1V165.1H1112.03V164.1V163.1H1107.41V164.1ZM1112.03 164.1H1111.03V182.44H1112.03H1113.03V164.1H1112.03ZM1112.03 182.44L1111.03 182.413L1110.82 190.183L1111.82 190.21L1112.82 190.237L1113.03 182.467L1112.03 182.44ZM1111.82 190.21L1112.55 190.893L1118.57 184.453L1117.84 183.77L1117.11 183.087L1111.09 189.527L1111.82 190.21ZM1117.84 183.77L1118.57 184.457L1137.19 164.787L1136.46 164.1L1135.73 163.413L1117.11 183.083L1117.84 183.77ZM1136.46 164.1V165.1H1142.27V164.1V163.1H1136.46V164.1ZM1142.27 164.1L1141.55 163.408L1123.98 181.748L1124.7 182.44L1125.42 183.132L1142.99 164.792L1142.27 164.1ZM1124.7 182.44L1123.87 182.998L1143.05 211.558L1143.88 211L1144.71 210.442L1125.53 181.882L1124.7 182.44ZM1143.88 211V210H1138.21V211V212H1143.88V211ZM1138.21 211L1139.04 210.446L1122.24 185.176L1121.41 185.73L1120.58 186.284L1137.38 211.554L1138.21 211ZM1121.41 185.73L1120.68 185.044L1111.3 194.984L1112.03 195.67L1112.76 196.356L1122.14 186.416L1121.41 185.73ZM1112.03 195.67H1111.03V211H1112.03H1113.03V195.67H1112.03Z" fill="#272528" mask="url(#path-1-outside-1_2848_614)"/>
<path d="M571.632 599V579.4H585.94V582.452H575.272V599H571.632ZM574.964 591.496V588.416H584.736V591.496H574.964ZM614.66 599V579.4H618.3V599H614.66ZM648.802 599V579.4H651.798L664.09 594.492H662.606V579.4H666.218V599H663.222L650.93 583.908H652.414V599H648.802ZM696.67 599V579.4H710.978V582.452H700.31V595.948H711.37V599H696.67ZM700.03 590.544V587.548H709.774V590.544H700.03ZM770.794 599L779.614 579.4H783.198L792.046 599H788.238L780.65 581.332H782.106L774.546 599H770.794ZM774.854 594.464L775.834 591.608H786.418L787.398 594.464H774.854ZM819.738 599V579.4H827.774C830.388 579.4 832.432 580.016 833.906 581.248C835.4 582.48 836.146 584.188 836.146 586.372C836.146 587.809 835.81 589.051 835.138 590.096C834.466 591.123 833.505 591.916 832.254 592.476C831.022 593.017 829.538 593.288 827.802 593.288H821.754L823.378 591.636V599H819.738ZM832.562 599L827.606 591.888H831.498L836.482 599H832.562ZM823.378 592.028L821.754 590.292H827.634C829.24 590.292 830.444 589.947 831.246 589.256C832.068 588.565 832.478 587.604 832.478 586.372C832.478 585.121 832.068 584.16 831.246 583.488C830.444 582.816 829.24 582.48 827.634 582.48H821.754L823.378 580.688V592.028ZM869.121 599V582.48H862.625V579.4H879.257V582.48H872.761V599H869.121ZM940.127 599V579.4H948.191C949.927 579.4 951.411 579.68 952.643 580.24C953.894 580.8 954.855 581.603 955.527 582.648C956.199 583.693 956.535 584.935 956.535 586.372C956.535 587.809 956.199 589.051 955.527 590.096C954.855 591.141 953.894 591.944 952.643 592.504C951.411 593.064 949.927 593.344 948.191 593.344H942.143L943.767 591.636V599H940.127ZM943.767 592.028L942.143 590.264H948.023C949.629 590.264 950.833 589.928 951.635 589.256C952.457 588.565 952.867 587.604 952.867 586.372C952.867 585.121 952.457 584.16 951.635 583.488C950.833 582.816 949.629 582.48 948.023 582.48H942.143L943.767 580.688V592.028ZM999.146 599V579.4H1002.79V599H999.146ZM985.37 599V579.4H989.01V599H985.37ZM988.702 590.6V587.492H999.426V590.6H988.702ZM1042.42 599.28C1040.89 599.28 1039.48 599.028 1038.19 598.524C1036.91 598.02 1035.79 597.32 1034.83 596.424C1033.88 595.509 1033.14 594.445 1032.62 593.232C1032.1 592 1031.84 590.656 1031.84 589.2C1031.84 587.744 1032.1 586.409 1032.62 585.196C1033.14 583.964 1033.88 582.9 1034.83 582.004C1035.79 581.089 1036.91 580.38 1038.19 579.876C1039.48 579.372 1040.88 579.12 1042.39 579.12C1043.92 579.12 1045.32 579.372 1046.59 579.876C1047.88 580.38 1049 581.089 1049.95 582.004C1050.91 582.9 1051.64 583.964 1052.17 585.196C1052.69 586.409 1052.95 587.744 1052.95 589.2C1052.95 590.656 1052.69 592 1052.17 593.232C1051.64 594.464 1050.91 595.528 1049.95 596.424C1049 597.32 1047.88 598.02 1046.59 598.524C1045.32 599.028 1043.93 599.28 1042.42 599.28ZM1042.39 596.088C1043.38 596.088 1044.3 595.92 1045.14 595.584C1045.98 595.248 1046.71 594.772 1047.32 594.156C1047.94 593.521 1048.41 592.793 1048.75 591.972C1049.1 591.132 1049.28 590.208 1049.28 589.2C1049.28 588.192 1049.1 587.277 1048.75 586.456C1048.41 585.616 1047.94 584.888 1047.32 584.272C1046.71 583.637 1045.98 583.152 1045.14 582.816C1044.3 582.48 1043.38 582.312 1042.39 582.312C1041.4 582.312 1040.49 582.48 1039.65 582.816C1038.83 583.152 1038.1 583.637 1037.47 584.272C1036.85 584.888 1036.36 585.616 1036.01 586.456C1035.67 587.277 1035.51 588.192 1035.51 589.2C1035.51 590.189 1035.67 591.104 1036.01 591.944C1036.36 592.784 1036.85 593.521 1037.47 594.156C1038.08 594.772 1038.81 595.248 1039.65 595.584C1040.49 595.92 1041.4 596.088 1042.39 596.088ZM1085.71 599V582.48H1079.22V579.4H1095.85V582.48H1089.35V599H1085.71ZM1132.69 599.28C1131.16 599.28 1129.75 599.028 1128.46 598.524C1127.17 598.02 1126.05 597.32 1125.1 596.424C1124.15 595.509 1123.41 594.445 1122.89 593.232C1122.37 592 1122.11 590.656 1122.11 589.2C1122.11 587.744 1122.37 586.409 1122.89 585.196C1123.41 583.964 1124.15 582.9 1125.1 582.004C1126.05 581.089 1127.17 580.38 1128.46 579.876C1129.75 579.372 1131.15 579.12 1132.66 579.12C1134.19 579.12 1135.59 579.372 1136.86 579.876C1138.15 580.38 1139.27 581.089 1140.22 582.004C1141.17 582.9 1141.91 583.964 1142.43 585.196C1142.96 586.409 1143.22 587.744 1143.22 589.2C1143.22 590.656 1142.96 592 1142.43 593.232C1141.91 594.464 1141.17 595.528 1140.22 596.424C1139.27 597.32 1138.15 598.02 1136.86 598.524C1135.59 599.028 1134.2 599.28 1132.69 599.28ZM1132.66 596.088C1133.65 596.088 1134.57 595.92 1135.41 595.584C1136.25 595.248 1136.97 594.772 1137.59 594.156C1138.21 593.521 1138.68 592.793 1139.02 591.972C1139.37 591.132 1139.55 590.208 1139.55 589.2C1139.55 588.192 1139.37 587.277 1139.02 586.456C1138.68 585.616 1138.21 584.888 1137.59 584.272C1136.97 583.637 1136.25 583.152 1135.41 582.816C1134.57 582.48 1133.65 582.312 1132.66 582.312C1131.67 582.312 1130.76 582.48 1129.92 582.816C1129.1 583.152 1128.37 583.637 1127.73 584.272C1127.12 584.888 1126.63 585.616 1126.28 586.456C1125.94 587.277 1125.77 588.192 1125.77 589.2C1125.77 590.189 1125.94 591.104 1126.28 591.944C1126.63 592.784 1127.12 593.521 1127.73 594.156C1128.35 594.772 1129.08 595.248 1129.92 595.584C1130.76 595.92 1131.67 596.088 1132.66 596.088ZM1181.43 599.28C1179.9 599.28 1178.49 599.037 1177.2 598.552C1175.93 598.048 1174.82 597.348 1173.87 596.452C1172.92 595.537 1172.18 594.464 1171.66 593.232C1171.14 592 1170.88 590.656 1170.88 589.2C1170.88 587.744 1171.14 586.4 1171.66 585.168C1172.18 583.936 1172.92 582.872 1173.87 581.976C1174.84 581.061 1175.97 580.361 1177.26 579.876C1178.55 579.372 1179.96 579.12 1181.49 579.12C1183.15 579.12 1184.64 579.391 1185.97 579.932C1187.31 580.473 1188.44 581.267 1189.36 582.312L1187.06 584.552C1186.29 583.787 1185.46 583.227 1184.57 582.872C1183.69 582.499 1182.72 582.312 1181.66 582.312C1180.63 582.312 1179.68 582.48 1178.8 582.816C1177.92 583.152 1177.17 583.628 1176.53 584.244C1175.9 584.86 1175.4 585.588 1175.05 586.428C1174.71 587.268 1174.54 588.192 1174.54 589.2C1174.54 590.189 1174.71 591.104 1175.05 591.944C1175.4 592.784 1175.9 593.521 1176.53 594.156C1177.17 594.772 1177.91 595.248 1178.77 595.584C1179.63 595.92 1180.58 596.088 1181.63 596.088C1182.6 596.088 1183.53 595.939 1184.43 595.64C1185.34 595.323 1186.21 594.8 1187.03 594.072L1189.1 596.788C1188.08 597.609 1186.88 598.235 1185.52 598.664C1184.18 599.075 1182.81 599.28 1181.43 599.28ZM1189.1 596.788L1185.66 596.312V588.976H1189.1V596.788ZM1219.1 599V579.4H1227.14C1229.75 579.4 1231.8 580.016 1233.27 581.248C1234.77 582.48 1235.51 584.188 1235.51 586.372C1235.51 587.809 1235.18 589.051 1234.5 590.096C1233.83 591.123 1232.87 591.916 1231.62 592.476C1230.39 593.017 1228.9 593.288 1227.17 593.288H1221.12L1222.74 591.636V599H1219.1ZM1231.93 599L1226.97 591.888H1230.86L1235.85 599H1231.93ZM1222.74 592.028L1221.12 590.292H1227C1228.61 590.292 1229.81 589.947 1230.61 589.256C1231.43 588.565 1231.84 587.604 1231.84 586.372C1231.84 585.121 1231.43 584.16 1230.61 583.488C1229.81 582.816 1228.61 582.48 1227 582.48H1221.12L1222.74 580.688V592.028ZM1262.01 599L1270.83 579.4H1274.42L1283.27 599H1279.46L1271.87 581.332H1273.33L1265.77 599H1262.01ZM1266.07 594.464L1267.05 591.608H1277.64L1278.62 594.464H1266.07ZM1310.96 599V579.4H1319.02C1320.76 579.4 1322.24 579.68 1323.47 580.24C1324.72 580.8 1325.69 581.603 1326.36 582.648C1327.03 583.693 1327.37 584.935 1327.37 586.372C1327.37 587.809 1327.03 589.051 1326.36 590.096C1325.69 591.141 1324.72 591.944 1323.47 592.504C1322.24 593.064 1320.76 593.344 1319.02 593.344H1312.97L1314.6 591.636V599H1310.96ZM1314.6 592.028L1312.97 590.264H1318.85C1320.46 590.264 1321.66 589.928 1322.47 589.256C1323.29 588.565 1323.7 587.604 1323.7 586.372C1323.7 585.121 1323.29 584.16 1322.47 583.488C1321.66 582.816 1320.46 582.48 1318.85 582.48H1312.97L1314.6 580.688V592.028ZM1369.98 599V579.4H1373.62V599H1369.98ZM1356.2 599V579.4H1359.84V599H1356.2ZM1359.53 590.6V587.492H1370.26V590.6H1359.53ZM1408.5 599V591.244L1409.31 593.484L1400.8 579.4H1404.69L1411.53 590.74H1409.34L1416.23 579.4H1419.81L1411.3 593.484L1412.14 591.244V599H1408.5Z" fill="#7F7D7E"/>
<mask id="path-4-outside-2_2848_614" maskUnits="userSpaceOnUse" x="287" y="291" width="1390" height="90" fill="black">
<rect fill="white" x="287" y="291" width="1390" height="90"/>
<path d="M324.31 380H314.3L289.21 292.9H299.09L315.34 353.61L319.11 371.94L323.79 353.87L342.25 292.9H353.04L371.24 353.87L375.79 371.94L379.56 353.61L396.2 292.9H405.82L380.6 380H370.59L352.26 318.64L347.45 300.18L342.64 318.64L324.31 380ZM513.904 380H505.324V292.9H513.904V331.77H562.524V292.9H571.104V380H562.524V339.44H513.904V380ZM693.644 380H685.064V292.9H693.644V380ZM828.302 380H819.722V300.44H791.382V292.9H856.642V300.44H828.302V380ZM987.222 380H978.642V300.44H950.302V292.9H1015.56V300.44H987.222V380ZM1106.71 380H1097.74L1132.71 292.9H1141.42L1176.39 380H1166.9L1156.37 353.22H1117.24L1106.71 380ZM1132.32 315.13L1120.23 345.68H1153.38L1141.42 315.13L1136.87 301.61L1132.32 315.13ZM1284 380H1275.42V292.9H1284V326.96L1283.61 341.39L1294.79 329.43L1329.37 292.9H1340.16L1307.53 326.96L1343.15 380H1332.62L1301.42 333.07L1284 351.53V380ZM1503.12 380H1444.62V292.9H1503.12V300.44H1453.2V331.77H1494.67V339.44H1453.2V372.46H1503.12V380ZM1615.55 380H1606.97V292.9H1642.98C1660.14 292.9 1672.23 301.87 1672.23 318.9C1672.23 333.46 1662.48 342.17 1647.53 343.34C1651.82 344.77 1655.33 347.63 1658.32 352.83L1674.44 380H1664.43L1648.44 352.83C1645.19 346.98 1639.73 343.99 1631.28 343.99H1615.55V380ZM1641.68 300.44H1615.55V336.97H1641.81C1654.03 336.97 1663.52 332.03 1663.52 318.9C1663.52 305.38 1654.03 300.44 1641.68 300.44Z"/>
</mask>
<path d="M324.31 380H314.3L289.21 292.9H299.09L315.34 353.61L319.11 371.94L323.79 353.87L342.25 292.9H353.04L371.24 353.87L375.79 371.94L379.56 353.61L396.2 292.9H405.82L380.6 380H370.59L352.26 318.64L347.45 300.18L342.64 318.64L324.31 380ZM513.904 380H505.324V292.9H513.904V331.77H562.524V292.9H571.104V380H562.524V339.44H513.904V380ZM693.644 380H685.064V292.9H693.644V380ZM828.302 380H819.722V300.44H791.382V292.9H856.642V300.44H828.302V380ZM987.222 380H978.642V300.44H950.302V292.9H1015.56V300.44H987.222V380ZM1106.71 380H1097.74L1132.71 292.9H1141.42L1176.39 380H1166.9L1156.37 353.22H1117.24L1106.71 380ZM1132.32 315.13L1120.23 345.68H1153.38L1141.42 315.13L1136.87 301.61L1132.32 315.13ZM1284 380H1275.42V292.9H1284V326.96L1283.61 341.39L1294.79 329.43L1329.37 292.9H1340.16L1307.53 326.96L1343.15 380H1332.62L1301.42 333.07L1284 351.53V380ZM1503.12 380H1444.62V292.9H1503.12V300.44H1453.2V331.77H1494.67V339.44H1453.2V372.46H1503.12V380ZM1615.55 380H1606.97V292.9H1642.98C1660.14 292.9 1672.23 301.87 1672.23 318.9C1672.23 333.46 1662.48 342.17 1647.53 343.34C1651.82 344.77 1655.33 347.63 1658.32 352.83L1674.44 380H1664.43L1648.44 352.83C1645.19 346.98 1639.73 343.99 1631.28 343.99H1615.55V380ZM1641.68 300.44H1615.55V336.97H1641.81C1654.03 336.97 1663.52 332.03 1663.52 318.9C1663.52 305.38 1654.03 300.44 1641.68 300.44Z" fill="#242023"/>
<path d="M324.31 380V381H325.055L325.268 380.286L324.31 380ZM314.3 380L313.339 380.277L313.547 381H314.3V380ZM289.21 292.9V291.9H287.881L288.249 293.177L289.21 292.9ZM299.09 292.9L300.056 292.641L299.858 291.9H299.09V292.9ZM315.34 353.61L316.319 353.409L316.314 353.38L316.306 353.351L315.34 353.61ZM319.11 371.94L318.131 372.141L320.078 372.191L319.11 371.94ZM323.79 353.87L322.833 353.58L322.827 353.6L322.822 353.619L323.79 353.87ZM342.25 292.9V291.9H341.508L341.293 292.61L342.25 292.9ZM353.04 292.9L353.998 292.614L353.785 291.9H353.04V292.9ZM371.24 353.87L372.21 353.626L372.204 353.605L372.198 353.584L371.24 353.87ZM375.79 371.94L374.82 372.184L376.77 372.141L375.79 371.94ZM379.56 353.61L378.596 353.346L378.587 353.377L378.581 353.409L379.56 353.61ZM396.2 292.9V291.9H395.437L395.236 292.636L396.2 292.9ZM405.82 292.9L406.781 293.178L407.151 291.9H405.82V292.9ZM380.6 380V381H381.352L381.561 380.278L380.6 380ZM370.59 380L369.632 380.286L369.845 381H370.59V380ZM352.26 318.64L351.292 318.892L351.297 318.909L351.302 318.926L352.26 318.64ZM347.45 300.18L348.418 299.928L347.45 296.214L346.482 299.928L347.45 300.18ZM342.64 318.64L343.598 318.926L343.603 318.909L343.608 318.892L342.64 318.64ZM324.31 380V379H314.3V380V381H324.31V380ZM314.3 380L315.261 379.723L290.171 292.623L289.21 292.9L288.249 293.177L313.339 380.277L314.3 380ZM289.21 292.9V293.9H299.09V292.9V291.9H289.21V292.9ZM299.09 292.9L298.124 293.159L314.374 353.869L315.34 353.61L316.306 353.351L300.056 292.641L299.09 292.9ZM315.34 353.61L314.361 353.811L318.131 372.141L319.11 371.94L320.09 371.739L316.319 353.409L315.34 353.61ZM319.11 371.94L320.078 372.191L324.758 354.121L323.79 353.87L322.822 353.619L318.142 371.689L319.11 371.94ZM323.79 353.87L324.747 354.16L343.207 293.19L342.25 292.9L341.293 292.61L322.833 353.58L323.79 353.87ZM342.25 292.9V293.9H353.04V292.9V291.9H342.25V292.9ZM353.04 292.9L352.082 293.186L370.282 354.156L371.24 353.87L372.198 353.584L353.998 292.614L353.04 292.9ZM371.24 353.87L370.27 354.114L374.82 372.184L375.79 371.94L376.76 371.696L372.21 353.626L371.24 353.87ZM375.79 371.94L376.77 372.141L380.539 353.811L379.56 353.61L378.581 353.409L374.811 371.739L375.79 371.94ZM379.56 353.61L380.524 353.874L397.164 293.164L396.2 292.9L395.236 292.636L378.596 353.346L379.56 353.61ZM396.2 292.9V293.9H405.82V292.9V291.9H396.2V292.9ZM405.82 292.9L404.859 292.622L379.639 379.722L380.6 380L381.561 380.278L406.781 293.178L405.82 292.9ZM380.6 380V379H370.59V380V381H380.6V380ZM370.59 380L371.548 379.714L353.218 318.354L352.26 318.64L351.302 318.926L369.632 380.286L370.59 380ZM352.26 318.64L353.228 318.388L348.418 299.928L347.45 300.18L346.482 300.432L351.292 318.892L352.26 318.64ZM347.45 300.18L346.482 299.928L341.672 318.388L342.64 318.64L343.608 318.892L348.418 300.432L347.45 300.18ZM342.64 318.64L341.682 318.354L323.352 379.714L324.31 380L325.268 380.286L343.598 318.926L342.64 318.64ZM513.904 380V381H514.904V380H513.904ZM505.324 380H504.324V381H505.324V380ZM505.324 292.9V291.9H504.324V292.9H505.324ZM513.904 292.9H514.904V291.9H513.904V292.9ZM513.904 331.77H512.904V332.77H513.904V331.77ZM562.524 331.77V332.77H563.524V331.77H562.524ZM562.524 292.9V291.9H561.524V292.9H562.524ZM571.104 292.9H572.104V291.9H571.104V292.9ZM571.104 380V381H572.104V380H571.104ZM562.524 380H561.524V381H562.524V380ZM562.524 339.44H563.524V338.44H562.524V339.44ZM513.904 339.44V338.44H512.904V339.44H513.904ZM513.904 380V379H505.324V380V381H513.904V380ZM505.324 380H506.324V292.9H505.324H504.324V380H505.324ZM505.324 292.9V293.9H513.904V292.9V291.9H505.324V292.9ZM513.904 292.9H512.904V331.77H513.904H514.904V292.9H513.904ZM513.904 331.77V332.77H562.524V331.77V330.77H513.904V331.77ZM562.524 331.77H563.524V292.9H562.524H561.524V331.77H562.524ZM562.524 292.9V293.9H571.104V292.9V291.9H562.524V292.9ZM571.104 292.9H570.104V380H571.104H572.104V292.9H571.104ZM571.104 380V379H562.524V380V381H571.104V380ZM562.524 380H563.524V339.44H562.524H561.524V380H562.524ZM562.524 339.44V338.44H513.904V339.44V340.44H562.524V339.44ZM513.904 339.44H512.904V380H513.904H514.904V339.44H513.904ZM693.644 380V381H694.644V380H693.644ZM685.064 380H684.064V381H685.064V380ZM685.064 292.9V291.9H684.064V292.9H685.064ZM693.644 292.9H694.644V291.9H693.644V292.9ZM693.644 380V379H685.064V380V381H693.644V380ZM685.064 380H686.064V292.9H685.064H684.064V380H685.064ZM685.064 292.9V293.9H693.644V292.9V291.9H685.064V292.9ZM693.644 292.9H692.644V380H693.644H694.644V292.9H693.644ZM828.302 380V381H829.302V380H828.302ZM819.722 380H818.722V381H819.722V380ZM819.722 300.44H820.722V299.44H819.722V300.44ZM791.382 300.44H790.382V301.44H791.382V300.44ZM791.382 292.9V291.9H790.382V292.9H791.382ZM856.642 292.9H857.642V291.9H856.642V292.9ZM856.642 300.44V301.44H857.642V300.44H856.642ZM828.302 300.44V299.44H827.302V300.44H828.302ZM828.302 380V379H819.722V380V381H828.302V380ZM819.722 380H820.722V300.44H819.722H818.722V380H819.722ZM819.722 300.44V299.44H791.382V300.44V301.44H819.722V300.44ZM791.382 300.44H792.382V292.9H791.382H790.382V300.44H791.382ZM791.382 292.9V293.9H856.642V292.9V291.9H791.382V292.9ZM856.642 292.9H855.642V300.44H856.642H857.642V292.9H856.642ZM856.642 300.44V299.44H828.302V300.44V301.44H856.642V300.44ZM828.302 300.44H827.302V380H828.302H829.302V300.44H828.302ZM987.222 380V381H988.222V380H987.222ZM978.642 380H977.642V381H978.642V380ZM978.642 300.44H979.642V299.44H978.642V300.44ZM950.302 300.44H949.302V301.44H950.302V300.44ZM950.302 292.9V291.9H949.302V292.9H950.302ZM1015.56 292.9H1016.56V291.9H1015.56V292.9ZM1015.56 300.44V301.44H1016.56V300.44H1015.56ZM987.222 300.44V299.44H986.222V300.44H987.222ZM987.222 380V379H978.642V380V381H987.222V380ZM978.642 380H979.642V300.44H978.642H977.642V380H978.642ZM978.642 300.44V299.44H950.302V300.44V301.44H978.642V300.44ZM950.302 300.44H951.302V292.9H950.302H949.302V300.44H950.302ZM950.302 292.9V293.9H1015.56V292.9V291.9H950.302V292.9ZM1015.56 292.9H1014.56V300.44H1015.56H1016.56V292.9H1015.56ZM1015.56 300.44V299.44H987.222V300.44V301.44H1015.56V300.44ZM987.222 300.44H986.222V380H987.222H988.222V300.44H987.222ZM1106.71 380V381H1107.4L1107.64 380.366L1106.71 380ZM1097.74 380L1096.82 379.627L1096.26 381H1097.74V380ZM1132.71 292.9V291.9H1132.04L1131.79 292.527L1132.71 292.9ZM1141.42 292.9L1142.35 292.527L1142.1 291.9H1141.42V292.9ZM1176.39 380V381H1177.87L1177.32 379.627L1176.39 380ZM1166.9 380L1165.97 380.366L1166.22 381H1166.9V380ZM1156.37 353.22L1157.3 352.854L1157.06 352.22H1156.37V353.22ZM1117.24 353.22V352.22H1116.56L1116.31 352.854L1117.24 353.22ZM1132.32 315.13L1133.25 315.498L1133.26 315.474L1133.27 315.449L1132.32 315.13ZM1120.23 345.68L1119.3 345.312L1118.76 346.68H1120.23V345.68ZM1153.38 345.68V346.68H1154.85L1154.32 345.315L1153.38 345.68ZM1141.42 315.13L1140.48 315.449L1140.48 315.472L1140.49 315.495L1141.42 315.13ZM1136.87 301.61L1137.82 301.291L1136.87 298.475L1135.93 301.291L1136.87 301.61ZM1106.71 380V379H1097.74V380V381H1106.71V380ZM1097.74 380L1098.67 380.373L1133.64 293.273L1132.71 292.9L1131.79 292.527L1096.82 379.627L1097.74 380ZM1132.71 292.9V293.9H1141.42V292.9V291.9H1132.71V292.9ZM1141.42 292.9L1140.5 293.273L1175.47 380.373L1176.39 380L1177.32 379.627L1142.35 292.527L1141.42 292.9ZM1176.39 380V379H1166.9V380V381H1176.39V380ZM1166.9 380L1167.83 379.634L1157.3 352.854L1156.37 353.22L1155.44 353.586L1165.97 380.366L1166.9 380ZM1156.37 353.22V352.22H1117.24V353.22V354.22H1156.37V353.22ZM1117.24 353.22L1116.31 352.854L1105.78 379.634L1106.71 380L1107.64 380.366L1118.17 353.586L1117.24 353.22ZM1132.32 315.13L1131.39 314.762L1119.3 345.312L1120.23 345.68L1121.16 346.048L1133.25 315.498L1132.32 315.13ZM1120.23 345.68V346.68H1153.38V345.68V344.68H1120.23V345.68ZM1153.38 345.68L1154.32 345.315L1142.36 314.765L1141.42 315.13L1140.49 315.495L1152.45 346.045L1153.38 345.68ZM1141.42 315.13L1142.37 314.811L1137.82 301.291L1136.87 301.61L1135.93 301.929L1140.48 315.449L1141.42 315.13ZM1136.87 301.61L1135.93 301.291L1131.38 314.811L1132.32 315.13L1133.27 315.449L1137.82 301.929L1136.87 301.61ZM1284 380V381H1285V380H1284ZM1275.42 380H1274.42V381H1275.42V380ZM1275.42 292.9V291.9H1274.42V292.9H1275.42ZM1284 292.9H1285V291.9H1284V292.9ZM1284 326.96L1285 326.987L1285 326.974V326.96H1284ZM1283.61 341.39L1282.61 341.363L1282.54 344L1284.34 342.073L1283.61 341.39ZM1294.79 329.43L1294.07 328.743L1294.06 328.747L1294.79 329.43ZM1329.37 292.9V291.9H1328.94L1328.65 292.213L1329.37 292.9ZM1340.16 292.9L1340.88 293.592L1342.5 291.9H1340.16V292.9ZM1307.53 326.96L1306.81 326.268L1306.25 326.849L1306.7 327.518L1307.53 326.96ZM1343.15 380V381H1345.03L1343.98 379.442L1343.15 380ZM1332.62 380L1331.79 380.554L1332.09 381H1332.62V380ZM1301.42 333.07L1302.25 332.516L1301.56 331.469L1300.69 332.384L1301.42 333.07ZM1284 351.53L1283.27 350.844L1283 351.133V351.53H1284ZM1284 380V379H1275.42V380V381H1284V380ZM1275.42 380H1276.42V292.9H1275.42H1274.42V380H1275.42ZM1275.42 292.9V293.9H1284V292.9V291.9H1275.42V292.9ZM1284 292.9H1283V326.96H1284H1285V292.9H1284ZM1284 326.96L1283 326.933L1282.61 341.363L1283.61 341.39L1284.61 341.417L1285 326.987L1284 326.96ZM1283.61 341.39L1284.34 342.073L1295.52 330.113L1294.79 329.43L1294.06 328.747L1282.88 340.707L1283.61 341.39ZM1294.79 329.43L1295.52 330.117L1330.1 293.587L1329.37 292.9L1328.65 292.213L1294.07 328.743L1294.79 329.43ZM1329.37 292.9V293.9H1340.16V292.9V291.9H1329.37V292.9ZM1340.16 292.9L1339.44 292.208L1306.81 326.268L1307.53 326.96L1308.25 327.652L1340.88 293.592L1340.16 292.9ZM1307.53 326.96L1306.7 327.518L1342.32 380.558L1343.15 380L1343.98 379.442L1308.36 326.402L1307.53 326.96ZM1343.15 380V379H1332.62V380V381H1343.15V380ZM1332.62 380L1333.45 379.446L1302.25 332.516L1301.42 333.07L1300.59 333.624L1331.79 380.554L1332.62 380ZM1301.42 333.07L1300.69 332.384L1283.27 350.844L1284 351.53L1284.73 352.216L1302.15 333.756L1301.42 333.07ZM1284 351.53H1283V380H1284H1285V351.53H1284ZM1503.12 380V381H1504.12V380H1503.12ZM1444.62 380H1443.62V381H1444.62V380ZM1444.62 292.9V291.9H1443.62V292.9H1444.62ZM1503.12 292.9H1504.12V291.9H1503.12V292.9ZM1503.12 300.44V301.44H1504.12V300.44H1503.12ZM1453.2 300.44V299.44H1452.2V300.44H1453.2ZM1453.2 331.77H1452.2V332.77H1453.2V331.77ZM1494.67 331.77H1495.67V330.77H1494.67V331.77ZM1494.67 339.44V340.44H1495.67V339.44H1494.67ZM1453.2 339.44V338.44H1452.2V339.44H1453.2ZM1453.2 372.46H1452.2V373.46H1453.2V372.46ZM1503.12 372.46H1504.12V371.46H1503.12V372.46ZM1503.12 380V379H1444.62V380V381H1503.12V380ZM1444.62 380H1445.62V292.9H1444.62H1443.62V380H1444.62ZM1444.62 292.9V293.9H1503.12V292.9V291.9H1444.62V292.9ZM1503.12 292.9H1502.12V300.44H1503.12H1504.12V292.9H1503.12ZM1503.12 300.44V299.44H1453.2V300.44V301.44H1503.12V300.44ZM1453.2 300.44H1452.2V331.77H1453.2H1454.2V300.44H1453.2ZM1453.2 331.77V332.77H1494.67V331.77V330.77H1453.2V331.77ZM1494.67 331.77H1493.67V339.44H1494.67H1495.67V331.77H1494.67ZM1494.67 339.44V338.44H1453.2V339.44V340.44H1494.67V339.44ZM1453.2 339.44H1452.2V372.46H1453.2H1454.2V339.44H1453.2ZM1453.2 372.46V373.46H1503.12V372.46V371.46H1453.2V372.46ZM1503.12 372.46H1502.12V380H1503.12H1504.12V372.46H1503.12ZM1615.55 380V381H1616.55V380H1615.55ZM1606.97 380H1605.97V381H1606.97V380ZM1606.97 292.9V291.9H1605.97V292.9H1606.97ZM1647.53 343.34L1647.45 342.343L1647.22 344.289L1647.53 343.34ZM1658.32 352.83L1657.46 353.329L1657.46 353.34L1658.32 352.83ZM1674.44 380V381H1676.2L1675.3 379.49L1674.44 380ZM1664.43 380L1663.57 380.507L1663.86 381H1664.43V380ZM1648.44 352.83L1647.57 353.316L1647.57 353.326L1647.58 353.337L1648.44 352.83ZM1615.55 343.99V342.99H1614.55V343.99H1615.55ZM1615.55 300.44V299.44H1614.55V300.44H1615.55ZM1615.55 336.97H1614.55V337.97H1615.55V336.97ZM1615.55 380V379H1606.97V380V381H1615.55V380ZM1606.97 380H1607.97V292.9H1606.97H1605.97V380H1606.97ZM1606.97 292.9V293.9H1642.98V292.9V291.9H1606.97V292.9ZM1642.98 292.9V293.9C1651.4 293.9 1658.46 296.1 1663.4 300.277C1668.31 304.435 1671.23 310.641 1671.23 318.9H1672.23H1673.23C1673.23 310.129 1670.11 303.335 1664.69 298.75C1659.29 294.185 1651.73 291.9 1642.98 291.9V292.9ZM1672.23 318.9H1671.23C1671.23 325.943 1668.88 331.488 1664.8 335.421C1660.7 339.366 1654.76 341.771 1647.45 342.343L1647.53 343.34L1647.61 344.337C1655.26 343.739 1661.67 341.204 1666.18 336.862C1670.71 332.507 1673.23 326.417 1673.23 318.9H1672.23ZM1647.53 343.34L1647.22 344.289C1651.24 345.629 1654.57 348.306 1657.46 353.328L1658.32 352.83L1659.19 352.332C1656.1 346.954 1652.41 343.911 1647.85 342.391L1647.53 343.34ZM1658.32 352.83L1657.46 353.34L1673.58 380.51L1674.44 380L1675.3 379.49L1659.18 352.32L1658.32 352.83ZM1674.44 380V379H1664.43V380V381H1674.44V380ZM1664.43 380L1665.29 379.493L1649.3 352.323L1648.44 352.83L1647.58 353.337L1663.57 380.507L1664.43 380ZM1648.44 352.83L1649.32 352.344C1647.61 349.265 1645.29 346.908 1642.28 345.33C1639.27 343.758 1635.62 342.99 1631.28 342.99V343.99V344.99C1635.39 344.99 1638.7 345.717 1641.35 347.102C1643.99 348.482 1646.03 350.545 1647.57 353.316L1648.44 352.83ZM1631.28 343.99V342.99H1615.55V343.99V344.99H1631.28V343.99ZM1615.55 343.99H1614.55V380H1615.55H1616.55V343.99H1615.55ZM1641.68 300.44V299.44H1615.55V300.44V301.44H1641.68V300.44ZM1615.55 300.44H1614.55V336.97H1615.55H1616.55V300.44H1615.55ZM1615.55 336.97V337.97H1641.81V336.97V335.97H1615.55V336.97ZM1641.81 336.97V337.97C1648.03 337.97 1653.7 336.717 1657.84 333.664C1662.03 330.573 1664.52 325.736 1664.52 318.9H1663.52H1662.52C1662.52 325.194 1660.27 329.392 1656.66 332.054C1653 334.753 1647.81 335.97 1641.81 335.97V336.97ZM1663.52 318.9H1664.52C1664.52 311.879 1662.04 306.943 1657.83 303.799C1653.67 300.693 1647.97 299.44 1641.68 299.44V300.44V301.44C1647.75 301.44 1652.96 302.657 1656.64 305.401C1660.26 308.107 1662.52 312.401 1662.52 318.9H1663.52Z" fill="#272528" mask="url(#path-4-outside-2_2848_614)"/>
<path d="M569 484.824C586.446 484.986 603.941 483.982 621.356 482.299C714.616 473.597 804.745 444.198 896.704 431.528C928.003 428.977 962.697 428.733 988.954 444.674L990.046 440.44C975.76 443.37 961.736 447.053 948.138 452.76C941.47 455.739 934.531 458.892 929.168 465.088C926.521 468.076 924.827 473.324 926.64 477.553C928.3 481.725 931.312 484.42 934.41 486.818C936.901 488.703 939.66 490.145 942.553 491.168C996.027 501.021 1041.84 453.377 1089.46 471.704C1084.68 467.369 1071.05 480.95 1076.36 490.616C1083.95 504.414 1100.01 504.277 1112.24 501.975C1180.57 476.69 1248.56 449.856 1321.08 443.605C1333.86 442.622 1346.74 442.313 1359.59 442.182C1377.04 442.031 1394.59 442.268 1412 442.815C1394.61 441.935 1377.05 441.382 1359.59 441.232C1346.72 441.143 1333.83 441.239 1320.97 442.024C1248.19 447.097 1178.64 473.534 1111.35 497.919C1100.3 500.326 1085.09 498.551 1080.52 489.114C1079.13 485.411 1079.7 481.801 1082.32 479.024C1083.6 477.623 1085.23 476.43 1087.02 475.35C1087.91 474.806 1088.84 474.3 1089.83 473.75C1090.33 473.467 1090.83 473.193 1091.42 472.799C1091.75 472.553 1092.04 472.423 1092.59 471.74C1092.67 471.642 1092.74 471.532 1092.81 471.404C1092.88 471.275 1092.96 471.138 1093.03 470.898C1093.19 470.459 1093.22 469.806 1093.03 469.264C1092.54 468.07 1092.05 467.956 1091.68 467.697C1038.89 448.017 992.352 496.243 944.223 486.455C941.768 485.585 939.486 484.389 937.424 482.83C931.75 478.742 928.565 473.067 933.037 468.229C937.113 463.412 943.747 460.097 950.093 457.309C963.107 451.807 977.066 448.083 990.954 445.19C993.217 444.754 993.82 442.426 992.046 440.955C962.499 423.218 928.238 424.622 896.289 427.215C803.353 440.7 714.304 471.057 621.256 481.355C603.897 483.332 586.445 484.652 569 484.824Z" fill="#242023"/>
</g>
<defs>
<clipPath id="clip0_2848_614">
<rect width="1981" height="715" fill="white"/>
</clipPath>
</defs>
</svg>
